HIERARCHY
ROOT Hips
{
	OFFSET 0.00 0.00 0.00
	CHANNELS 6 Xposition Yposition Zposition Xrotation Yrotation Zrotation
	JOINT Spine
	{
		OFFSET 0.00000 5.19526 0.00000
		CHANNELS 3 Xrotation Yrotation Zrotation
		JOINT Head
		{
			OFFSET 0.00000 15.65388 0.00000
			CHANNELS 3 Xrotation Yrotation Zrotation
			End Site
			{
				OFFSET 0.00000 4.52755 0.00000
			}
		}
		JOINT LeftShoulder
		{
			OFFSET 0.00000 10.32977 0.00000
			CHANNELS 3 Xrotation Yrotation Zrotation
			JOINT LeftArm
			{
				OFFSET 6.99601 0.00000 0.00000
				CHANNELS 3 Xrotation Yrotation Zrotation
				JOINT LeftForeArm
				{
					OFFSET 10.20930 0.00000 0.00000
					CHANNELS 3 Yrotation Zrotation Xrotation
					JOINT LeftHand
					{
						OFFSET 8.56316 0.00000 0.00000
						CHANNELS 3 Xrotation Yrotation Zrotation
						JOINT LeftHandThumb1
						{
							OFFSET 0.00000 0.00000 0.00000
							CHANNELS 3 Xrotation Zrotation Yrotation
							End Site
							{
								OFFSET 0.00000 0.00000 3.93700
							}
						}
						End Site
						{
							OFFSET 3.93700 0.00000 0.00000
						}
					}
				}
			}
		}
		JOINT RightShoulder
		{
			OFFSET 0.00000 10.32977 0.00000
			CHANNELS 3 Xrotation Yrotation Zrotation
			JOINT RightArm
			{
				OFFSET -6.99601 0.00000 0.00000
				CHANNELS 3 Xrotation Yrotation Zrotation
				JOINT RightForeArm
				{
					OFFSET -10.20930 0.00000 0.00000
					CHANNELS 3 Yrotation Zrotation Xrotation
					JOINT RightHand
					{
						OFFSET -8.56316 0.00000 0.00000
						CHANNELS 3 Xrotation Yrotation Zrotation
						JOINT RightHandThumb1
						{
							OFFSET 0.00000 0.00000 0.00000
							CHANNELS 3 Xrotation Zrotation Yrotation
							End Site
							{
								OFFSET 0.00000 0.00000 3.93700
							}
						}
						End Site
						{
							OFFSET -3.93700 0.00000 0.00000
						}
					}
				}
			}
		}
	}
	JOINT LeftUpLeg
	{
		OFFSET 3.35136 0.00000 0.00000
		CHANNELS 3 Xrotation Yrotation Zrotation
		JOINT LeftLeg
		{
			OFFSET 0.00000 -16.34683 0.00000
			CHANNELS 3 Xrotation Yrotation Zrotation
			JOINT LeftFoot
			{
				OFFSET 0.00000 -13.95979 0.00000
				CHANNELS 3 Xrotation Yrotation Zrotation
				JOINT LeftToeBase
				{
					OFFSET 0.00000 -1.33694 4.98954
					CHANNELS 3 Xrotation Yrotation Zrotation
					End Site
					{
						OFFSET 0.00000 0.00000 2.95275
					}
				}
			}
		}
	}
	JOINT RightUpLeg
	{
		OFFSET -3.35136 0.00000 0.00000
		CHANNELS 3 Xrotation Yrotation Zrotation
		JOINT RightLeg
		{
			OFFSET 0.00000 -16.34683 0.00000
			CHANNELS 3 Xrotation Yrotation Zrotation
			JOINT RightFoot
			{
				OFFSET 0.00000 -13.95979 0.00000
				CHANNELS 3 Xrotation Yrotation Zrotation
				JOINT RightToeBase
				{
					OFFSET 0.00000 -1.33694 4.98954
					CHANNELS 3 Xrotation Yrotation Zrotation
					End Site
					{
						OFFSET 0.00000 0.00000 2.95275
					}
				}
			}
		}
	}
}
MOTION
Frames: 17
Frame Time: 0.008333
 -5.8057 31.7429 -4.6747 5.1927 4.9271 2.2220 -6.8805 -5.7613 -4.1109 17.2050 11.7625 3.6866 6.3499 20.4824 22.1237 -37.6913 2.2171 -29.4918 -3.7843 0.0000 -27.4756 3.3863 11.8170 -16.1160 33.1476 -0.0000 26.2537 -9.5359 -7.3319 -30.5463 -17.4712 6.7323 39.2726 5.7326 -0.0000 22.1824 4.5907 -13.3671 19.1526 32.8623 0.0000 -24.3270 -0.5671 -2.6467 -1.6597 1.3196 0.0000 -0.0000 -13.0642 30.8338 -12.1054 8.1973 -0.0000 -0.0000 2.5703 -4.8214 -1.5650 -3.9613 -0.0000 -0.0000 -14.4853 -16.5164 -0.4942 4.7582 0.0000 -0.0000
 -5.8067 31.7427 -4.6739 5.1952 4.9284 2.2213 -6.8719 -5.7688 -4.1231 17.2152 11.7508 3.6831 6.3273 20.4646 22.1433 -37.6565 2.2512 -29.4831 -3.8284 0.0000 -27.4765 3.3905 11.8420 -16.1031 33.1476 -0.0000 26.2537 -9.5357 -7.3297 -30.5335 -17.4350 6.7529 39.2508 5.7295 -0.0000 22.1274 4.6069 -13.3968 19.1768 32.8623 0.0000 -24.3270 -0.5698 -2.6456 -1.6548 1.3244 -0.0000 0.0000 -13.0760 30.8097 -12.0734 8.1827 -0.0000 -0.0000 2.5746 -4.8087 -1.5631 -3.9713 0.0000 0.0000 -14.4783 -16.5216 -0.5164 4.7253 0.0000 0.0000
 -5.8063 31.7426 -4.6733 5.2019 4.9307 2.2174 -6.8689 -5.7753 -4.1258 17.2292 11.7461 3.6838 6.3158 20.4529 22.1483 -37.6544 2.2774 -29.4728 -3.8512 0.0000 -27.4630 3.3876 11.8325 -16.1021 33.1476 -0.0000 26.2537 -9.5410 -7.3347 -30.5449 -17.4510 6.7333 39.2618 5.7237 -0.0000 22.1563 4.6011 -13.3854 19.1692 32.8623 0.0000 -24.3270 -0.5747 -2.6359 -1.6522 1.3249 0.0000 0.0000 -13.0764 30.7980 -12.0708 8.1670 0.0000 0.0000 2.5652 -4.8049 -1.5604 -3.9613 -0.0000 -0.0000 -14.4804 -16.5320 -0.4950 4.7305 0.0000 -0.0000
 -5.8060 31.7426 -4.6722 5.2071 4.9303 2.2184 -6.8588 -5.7752 -4.1316 17.2264 11.7155 3.6903 6.3076 20.4590 22.1326 -37.6543 2.2576 -29.4550 -3.8582 0.0000 -27.4626 3.3854 11.8283 -16.0977 33.1476 -0.0000 26.2537 -9.5443 -7.3622 -30.5516 -17.4720 6.7436 39.2702 5.7151 -0.0000 22.1578 4.6073 -13.4012 19.1728 32.8623 0.0000 -24.3270 -0.5775 -2.6400 -1.6550 1.3210 -0.0000 -0.0000 -13.0789 30.8129 -12.0850 8.1713 0.0000 0.0000 2.5624 -4.8093 -1.5628 -3.9623 0.0000 -0.0000 -14.4768 -16.5300 -0.4799 4.7269 -0.0000 0.0000
 -5.8057 31.7422 -4.6713 5.2099 4.9325 2.2178 -6.8570 -5.7929 -4.1453 17.2433 11.7468 3.6827 6.3195 20.4752 22.1437 -37.6585 2.2681 -29.4583 -3.8790 0.0000 -27.4748 3.3899 11.8411 -16.1017 33.1476 -0.0000 26.2537 -9.5186 -7.3655 -30.5383 -17.4913 6.7440 39.2604 5.7104 -0.0000 22.0989 4.6482 -13.3791 19.3598 32.8623 0.0000 -24.3270 -0.5798 -2.6477 -1.6550 1.3221 0.0000 0.0000 -13.0858 30.8124 -12.0920 8.2317 0.0000 -0.0000 2.5636 -4.8094 -1.5615 -3.9663 0.0000 0.0000 -14.4826 -16.5350 -0.4998 4.6943 0.0000 -0.0000
 -5.8059 31.7423 -4.6715 5.2311 4.9312 2.2120 -6.8676 -5.7889 -4.1526 17.2431 11.7495 3.7000 6.2852 20.4529 22.1689 -37.6158 2.2881 -29.4579 -3.8995 0.0000 -27.4853 3.3808 11.7975 -16.1160 33.1476 -0.0000 26.2537 -9.5283 -7.3731 -30.5454 -17.5151 6.6867 39.2765 5.7241 -0.0000 22.2661 4.5603 -13.2912 19.1336 32.8623 0.0000 -24.3270 -0.6036 -2.6508 -1.6499 1.3302 -0.0000 -0.0000 -13.0867 30.8143 -12.0981 8.2078 0.0000 -0.0000 2.5404 -4.8119 -1.5575 -3.9616 -0.0000 0.0000 -14.4853 -16.5258 -0.5037 4.6663 -0.0000 0.0000
 -5.8056 31.7418 -4.6703 5.2298 4.9215 2.2173 -6.8547 -5.7867 -4.1693 17.2459 11.7538 3.7072 6.2889 20.4658 22.1690 -37.6077 2.2687 -29.4528 -3.8967 0.0000 -27.5284 3.3721 11.7848 -16.0931 33.1476 -0.0000 26.2537 -9.5430 -7.3796 -30.5411 -17.4991 6.7008 39.2760 5.7233 -0.0000 22.2613 4.5524 -13.2832 19.1132 32.8623 0.0000 -24.3270 -0.5955 -2.6291 -1.6561 1.3264 0.0000 0.0000 -13.0915 30.8042 -12.0507 8.1874 -0.0000 0.0000 2.5443 -4.7986 -1.5642 -3.9658 0.0000 0.0000 -14.4871 -16.5237 -0.4931 4.6928 -0.0000 0.0000
 -5.8066 31.7416 -4.6701 5.2396 4.9144 2.2120 -6.8513 -5.7803 -4.1763 17.2468 11.7496 3.7193 6.2748 20.4629 22.1876 -37.5456 2.2307 -29.4732 -3.8983 0.0000 -27.7730 3.3248 11.8089 -15.8477 33.1476 -0.0000 26.2537 -9.5548 -7.3913 -30.5422 -17.5252 6.6690 39.2868 5.7347 -0.0000 22.3019 4.5519 -13.2655 19.1345 32.8623 0.0000 -24.3270 -0.6049 -2.6217 -1.6486 1.3277 -0.0000 0.0000 -13.0945 30.7971 -12.0559 8.1904 -0.0000 -0.0000 2.5335 -4.7866 -1.5568 -3.9640 0.0000 -0.0000 -14.4875 -16.5366 -0.5096 4.6916 -0.0000 0.0000
 -5.8090 31.7417 -4.6709 5.2587 4.8997 2.2010 -6.8578 -5.7798 -4.1796 17.2532 11.7588 3.7181 6.2730 20.4604 22.1813 -37.5431 2.2357 -29.4429 -3.9036 0.0000 -27.7797 3.3196 11.7788 -15.8621 33.1476 -0.0000 26.2537 -9.5988 -7.3589 -30.5124 -17.4144 6.7204 39.2395 5.7584 -0.0000 22.1718 4.6065 -13.3775 19.2006 32.8623 0.0000 -24.3270 -0.6233 -2.6108 -1.6324 1.3312 0.0000 -0.0000 -13.1016 30.7941 -12.0705 8.2100 0.0000 -0.0000 2.5117 -4.7706 -1.5433 -3.9605 0.0000 0.0000 -14.4828 -16.5436 -0.4831 4.7101 -0.0000 -0.0000
 -5.8082 31.7415 -4.6707 5.2691 4.8909 2.2006 -6.8631 -5.7820 -4.1883 17.2747 11.7672 3.6987 6.2741 20.4553 22.1846 -37.5578 2.2615 -29.4264 -3.9057 0.0000 -27.7678 3.3218 11.7732 -15.8793 33.1476 -0.0000 26.2537 -9.5937 -7.3574 -30.5064 -17.4322 6.7153 39.2366 5.7476 -0.0000 22.1766 4.6104 -13.3859 19.2048 32.8623 0.0000 -24.3270 -0.6327 -2.6198 -1.6359 1.3320 0.0000 -0.0000 -13.1039 30.8125 -12.0917 8.1798 -0.0000 0.0000 2.5022 -4.7702 -1.5454 -3.9646 0.0000 -0.0000 -14.4788 -16.5378 -0.4971 4.6575 0.0000 -0.0000
 -5.8085 31.7412 -4.6696 5.2772 4.8698 2.2013 -6.8605 -5.7714 -4.1962 17.2834 11.7811 3.6873 6.2504 20.4398 22.2162 -37.5082 2.2805 -29.4285 -3.8972 0.0000 -27.7634 3.3164 11.7429 -15.8928 33.1476 -0.0000 26.2537 -9.6007 -7.3678 -30.5235 -17.4701 6.6726 39.2700 5.7578 -0.0000 22.2756 4.5779 -13.3173 19.1678 32.8623 0.0000 -24.3270 -0.6323 -2.5976 -1.6359 1.3259 0.0000 -0.0000 -13.1189 30.8026 -12.0379 8.2258 -0.0000 0.0000 2.4940 -4.7553 -1.5461 -3.9650 -0.0000 -0.0000 -14.4790 -16.5271 -0.5173 4.7167 0.0000 -0.0000
 -5.8086 31.7415 -4.6689 5.2855 4.8567 2.1937 -6.8641 -5.7725 -4.1926 17.2997 11.7993 3.6340 6.2395 20.4262 22.2008 -37.5366 2.3098 -29.3897 -3.9005 0.0000 -27.7307 3.3180 11.7398 -15.9043 33.1476 -0.0000 26.2537 -9.6458 -7.3119 -30.5584 -17.4782 6.5813 39.3100 5.7623 -0.0000 22.3081 4.6082 -13.3888 19.1923 32.8623 0.0000 -24.3270 -0.6346 -2.5866 -1.6279 1.3198 0.0000 -0.0000 -13.1173 30.8106 -12.0473 8.2292 0.0000 -0.0000 2.4862 -4.7578 -1.5388 -3.9669 -0.0000 -0.0000 -14.4770 -16.5213 -0.4893 4.7227 -0.0000 0.0000
 -5.8071 31.7411 -4.6687 5.2910 4.8449 2.1944 -6.8521 -5.7829 -4.1883 17.3027 11.7736 3.6422 6.2129 20.4197 22.1854 -37.5986 2.3782 -29.3580 -3.9226 0.0000 -27.6296 3.3224 11.7678 -15.8887 33.1476 -0.0000 26.2537 -9.6876 -7.2943 -30.5727 -17.4577 6.5757 39.3178 5.7629 -0.0000 22.3733 4.5884 -13.3465 19.1705 32.8623 0.0000 -24.3270 -0.6360 -2.5796 -1.6318 1.3185 -0.0000 -0.0000 -13.1277 30.8027 -12.0042 8.2187 -0.0000 -0.0000 2.4793 -4.7531 -1.5432 -3.9658 -0.0000 0.0000 -14.4777 -16.5107 -0.5023 4.6972 0.0000 0.0000
 -5.8070 31.7409 -4.6678 5.2974 4.8300 2.1899 -6.8541 -5.7775 -4.1908 17.3242 11.7519 3.6402 6.1944 20.4103 22.1955 -37.5845 2.3908 -29.3502 -3.9281 0.0000 -27.6434 3.3218 11.7849 -15.8641 33.1476 -0.0000 26.2537 -9.6397 -7.3502 -30.5393 -17.5215 6.6625 39.2929 5.7141 -0.0000 22.2292 4.6037 -13.3962 19.1654 32.8623 0.0000 -24.3270 -0.6377 -2.5758 -1.6258 1.3156 -0.0000 0.0000 -13.1192 30.8243 -12.0821 8.1949 -0.0000 0.0000 2.4759 -4.7477 -1.5410 -3.9698 0.0000 -0.0000 -14.4775 -16.4974 -0.4845 4.7424 0.0000 -0.0000
 -5.8064 31.7407 -4.6673 5.3013 4.8073 2.1875 -6.8487 -5.7637 -4.1914 17.3421 11.7659 3.6185 6.2036 20.4222 22.1804 -37.6304 2.3877 -29.3358 -3.9170 0.0000 -27.6133 3.3171 11.7892 -15.8377 33.1476 -0.0000 26.2537 -9.6322 -7.3546 -30.5420 -17.5247 6.6656 39.2899 5.7338 -0.0000 22.2891 4.6399 -13.4282 19.2634 32.8623 0.0000 -24.3270 -0.6321 -2.5812 -1.6238 1.3045 -0.0000 0.0000 -13.1300 30.8456 -12.0805 8.2491 0.0000 -0.0000 2.4701 -4.7427 -1.5401 -3.9692 0.0000 0.0000 -14.4702 -16.4827 -0.4748 4.7332 -0.0000 -0.0000
 -5.8058 31.7406 -4.6667 5.3069 4.7901 2.1840 -6.8441 -5.7567 -4.1941 17.3444 11.7666 3.6178 6.2027 20.4458 22.1756 -37.5768 2.3282 -29.3370 -3.9193 0.0000 -27.7052 3.3153 11.8055 -15.8088 33.1476 -0.0000 26.2537 -9.6394 -7.3654 -30.5396 -17.4338 6.7503 39.2789 5.7466 -0.0000 22.1731 4.6403 -13.4486 19.2383 32.8623 0.0000 -24.3270 -0.6334 -2.5723 -1.6249 1.3048 -0.0000 -0.0000 -13.1328 30.8640 -12.0758 8.2011 -0.0000 0.0000 2.4677 -4.7362 -1.5388 -3.9770 -0.0000 0.0000 -14.4601 -16.4693 -0.4730 4.7154 0.0000 0.0000
 -5.8052 31.7403 -4.6660 5.3148 4.7737 2.1847 -6.8508 -5.7643 -4.2047 17.3745 11.8000 3.5917 6.1886 20.4414 22.1860 -37.5795 2.3893 -29.3067 -3.9670 0.0000 -27.5411 3.3510 11.8137 -15.9605 33.1476 -0.0000 26.2537 -9.6310 -7.3541 -30.5331 -17.4584 6.7414 39.2830 5.7384 -0.0000 22.2021 4.6426 -13.4429 19.2550 32.8623 0.0000 -24.3270 -0.6340 -2.5809 -1.6238 1.2936 -0.0000 -0.0000 -13.1364 30.8741 -12.0809 8.2064 -0.0000 -0.0000 2.4586 -4.7194 -1.5398 -3.9730 0.0000 -0.0000 -14.4690 -16.4736 -0.4971 4.6752 0.0000 -0.0000
